<svg width="2388" height="2395" viewBox="0 0 2388 2395" fill="none" xmlns="http://www.w3.org/2000/svg">
<path d="M2293.84 1456.47L1045.21 1873.88L72.4638 954.499L853.939 802.082L2293.84 1456.47Z" fill="#3A0770" stroke="black" stroke-width="69"/>
<path d="M858.167 766.108L599.072 871.568L347.788 1263.47L3.08258e-06 933.482L858.167 766.108Z" fill="#23073C" fill-opacity="0.91"/>
<path d="M942.545 1309.24L346.487 1263.93L685.003 1091.6L942.545 1309.24Z" fill="#5F1D99" fill-opacity="0.61"/>
<path d="M347.789 1263.47L599.072 871.568L685.003 1091.6L347.789 1263.47Z" fill="#99949D" fill-opacity="0.59"/>
<path d="M1433.64 1322.05L858.167 766.107L1666.1 1132.32L1433.64 1322.05Z" fill="#8358A8" fill-opacity="0.92"/>
<path d="M685.002 1091.6L1433.64 1322.06L858.168 766.107L599.071 871.568L685.002 1091.6Z" fill="#744B98" fill-opacity="0.52"/>
<path d="M796.114 1690.42L665.472 1288.2L943.847 1308.78L796.114 1690.42Z" fill="#A795B8" fill-opacity="0.48"/>
<path d="M796.115 1690.42L943.847 1308.78L1165.45 1497.55L796.115 1690.42Z" fill="#A795B8" fill-opacity="0.17"/>
<path d="M1165.45 1497.55L685.004 1091.6L1433.65 1322.06L1293.03 1431.42L1165.45 1497.55Z" fill="#B997D0"/>
<path d="M2388 1461.37L1433.64 1322.06L1666.09 1132.32L2388 1461.37Z" fill="#744B98" fill-opacity="0.47"/>
<path d="M1293.03 1431.42L2388 1461.37L1877.62 1539.49L1703.16 1690.52L1293.03 1431.42Z" fill="white" fill-opacity="0.97"/>
<path d="M1036.54 1913.16L1293.03 1431.42L1321.67 1818.11L1036.54 1913.16Z" fill="white"/>
<path d="M1036.54 1913.16L794.813 1683.91L1293.03 1431.42L1433.64 1322.05L2386.7 1461.37L1036.54 1913.16Z" fill="#120117" fill-opacity="0.66"/>
</svg>
