<svg width="8379" height="4793" viewBox="0 0 8379 4793" fill="none" xmlns="http://www.w3.org/2000/svg">
<path d="M635.706 475.546C638.091 445.649 657.947 421.074 686.249 411.149L1621.22 83.2749C1662.65 68.7469 1707.82 91.7432 1720.45 133.79L2017.3 1122.26C2029.65 1163.38 2005.98 1206.66 1964.7 1218.45L1413.99 1375.76C1376.29 1386.53 1352.76 1423.78 1359.91 1462.33C1393.77 1644.95 1496.34 2156.14 1638.64 2482.63C1769.24 2782.3 2041.58 3174.75 2141.34 3314.41C2163.02 3344.76 2203.35 3354.47 2236.79 3337.95L2747.38 3085.59C2785.6 3066.7 2831.9 3082.46 2850.65 3120.76L3300.2 4038.84C3320.02 4079.34 3300.97 4128.13 3258.95 4144.47L2398.05 4479.23C2372.57 4489.14 2344.32 4485.23 2323.16 4467.91C2131.81 4311.24 1180.52 3508.22 861.721 2775.81C533.048 2020.71 614.7 738.84 635.706 475.546Z" fill="#D9D9D9" stroke="url(#paint0_linear_3_134)" stroke-width="60"/>
<path d="M635.706 475.546C638.091 445.649 657.947 421.074 686.249 411.149L1621.22 83.2749C1662.65 68.7469 1707.82 91.7432 1720.45 133.79L2017.3 1122.26C2029.65 1163.38 2005.98 1206.66 1964.7 1218.45L1413.99 1375.76C1376.29 1386.53 1352.76 1423.78 1359.91 1462.33C1393.77 1644.95 1496.34 2156.14 1638.64 2482.63C1769.24 2782.3 2041.58 3174.75 2141.34 3314.41C2163.02 3344.76 2203.35 3354.47 2236.79 3337.95L2747.38 3085.59C2785.6 3066.7 2831.9 3082.46 2850.65 3120.76L3300.2 4038.84C3320.02 4079.34 3300.97 4128.13 3258.95 4144.47L2398.05 4479.23C2372.57 4489.14 2344.32 4485.23 2323.16 4467.91C2131.81 4311.24 1180.52 3508.22 861.721 2775.81C533.048 2020.71 614.7 738.84 635.706 475.546Z" fill="url(#paint1_linear_3_134)"/>
<path d="M2731.4 2517L2231 1653H2382.2L2796.2 2370.6L3207.8 1653H3359L2859.8 2517H2731.4ZM3565.18 2517C3536.38 2517 3510.38 2509.8 3487.18 2495.4C3463.98 2481 3445.18 2462.2 3430.78 2439C3416.38 2415.8 3409.18 2389.8 3409.18 2361V1977C3409.18 1948.2 3416.38 1922.2 3430.78 1899C3445.18 1875.8 3463.98 1857 3487.18 1842.6C3510.38 1828.2 3536.38 1821 3565.18 1821H3961.18C3989.98 1821 4015.98 1828.2 4039.18 1842.6C4063.18 1856.2 4081.98 1875 4095.58 1899C4109.98 1923 4117.18 1949 4117.18 1977V2361C4117.18 2389.8 4109.98 2415.8 4095.58 2439C4081.98 2462.2 4063.18 2481 4039.18 2495.4C4015.98 2509.8 3989.98 2517 3961.18 2517H3565.18ZM3568.78 2387.4H3957.58C3965.58 2387.4 3972.38 2384.6 3977.98 2379C3983.58 2372.6 3986.38 2365.4 3986.38 2357.4V1980.6C3986.38 1972.6 3983.58 1965.8 3977.98 1960.2C3972.38 1953.8 3965.58 1950.6 3957.58 1950.6H3568.78C3560.78 1950.6 3553.58 1953.8 3547.18 1960.2C3541.58 1965.8 3538.78 1972.6 3538.78 1980.6V2357.4C3538.78 2365.4 3541.58 2372.6 3547.18 2379C3553.58 2384.6 3560.78 2387.4 3568.78 2387.4ZM4241.24 2517V1821H4370.84V2517H4241.24ZM4241.24 1722.6V1593H4370.84V1722.6H4241.24ZM4492.08 2793V1821H5044.08C5072.88 1821 5098.88 1828.2 5122.08 1842.6C5146.08 1857 5164.88 1875.8 5178.48 1899C5192.88 1922.2 5200.08 1948.2 5200.08 1977V2361C5200.08 2389.8 5192.88 2415.8 5178.48 2439C5164.88 2462.2 5146.08 2481 5122.08 2495.4C5098.88 2509.8 5072.88 2517 5044.08 2517H4621.68V2793H4492.08ZM4651.68 2387.4H5040.48C5048.48 2387.4 5055.28 2384.6 5060.88 2379C5067.28 2372.6 5070.48 2365.4 5070.48 2357.4V1980.6C5070.48 1972.6 5067.28 1965.8 5060.88 1960.2C5055.28 1953.8 5048.48 1950.6 5040.48 1950.6H4651.68C4643.68 1950.6 4636.48 1953.8 4630.08 1960.2C4624.48 1965.8 4621.68 1972.6 4621.68 1980.6V2357.4C4621.68 2365.4 4624.48 2372.6 4630.08 2379C4636.48 2384.6 4643.68 2387.4 4651.68 2387.4ZM5441.36 2517C5412.56 2517 5386.56 2509.8 5363.36 2495.4C5340.16 2481 5321.36 2462.2 5306.96 2439C5292.56 2415.8 5285.36 2389.8 5285.36 2361V1977C5285.36 1948.2 5292.56 1922.2 5306.96 1899C5321.36 1875.8 5340.16 1857 5363.36 1842.6C5386.56 1828.2 5412.56 1821 5441.36 1821H5837.36C5866.16 1821 5892.16 1828.2 5915.36 1842.6C5939.36 1856.2 5958.16 1875 5971.76 1899C5986.16 1923 5993.36 1949 5993.36 1977V2233.8H5414.96V2357.4C5414.96 2365.4 5417.76 2372.6 5423.36 2379C5429.76 2384.6 5436.96 2387.4 5444.96 2387.4H5993.36V2517H5441.36ZM5414.96 2112.6H5862.56V1980.6C5862.56 1972.6 5859.76 1965.8 5854.16 1960.2C5848.56 1953.8 5841.76 1950.6 5833.76 1950.6H5444.96C5436.96 1950.6 5429.76 1953.8 5423.36 1960.2C5417.76 1965.8 5414.96 1972.6 5414.96 1980.6V2112.6ZM6110.38 2517V1977C6110.38 1948.2 6117.58 1922.2 6131.98 1899C6146.38 1875.8 6165.18 1857 6188.38 1842.6C6212.38 1828.2 6238.38 1821 6266.38 1821H6655.18V1950.6H6269.98C6261.98 1950.6 6254.78 1953.8 6248.38 1960.2C6242.78 1965.8 6239.98 1972.6 6239.98 1980.6V2517H6110.38Z" fill="url(#paint2_linear_3_134)"/>
<path d="M7573.5 1304L8061.63 2128.41L7573.5 2915.08L7081.94 2112.97L7573.5 1304Z" fill="#3A0770"/>
<path d="M7081.94 2112.97L7573.5 1304L7606.96 2199.61L7081.94 2112.97Z" fill="#99949D" fill-opacity="0.41"/>
<path d="M7606.96 2199.61L7573.5 1304L8061.63 2128.41L7606.96 2199.61Z" fill="#99949D" fill-opacity="0.09"/>
<path d="M7573.5 2915.08L7606.96 2199.61L8061.63 2128.41L7573.5 2915.08Z" fill="#232323" fill-opacity="0.18"/>
<path d="M7081.94 2112.97L7606.96 2199.61L7573.5 2915.08L7081.94 2112.97Z" fill="#54485F" fill-opacity="0.54"/>
<defs>
<linearGradient id="paint0_linear_3_134" x1="836.936" y1="345.952" x2="2532.06" y2="4446.85" gradientUnits="userSpaceOnUse">
<stop stop-color="#34085B"/>
<stop offset="1" stop-color="#61318B"/>
</linearGradient>
<linearGradient id="paint1_linear_3_134" x1="836.936" y1="345.952" x2="2532.06" y2="4446.85" gradientUnits="userSpaceOnUse">
<stop stop-color="#34085B"/>
<stop offset="1" stop-color="#61318B"/>
</linearGradient>
<linearGradient id="paint2_linear_3_134" x1="1834.58" y1="1304" x2="7052.05" y2="3483.14" gradientUnits="userSpaceOnUse">
<stop stop-color="#763BAA"/>
<stop offset="1" stop-color="#471672"/>
</linearGradient>
</defs>
</svg>
